<svg xmlns="http://www.w3.org/2000/svg" viewBox="0 0 500 500"><defs><linearGradient id="g" x1="0" y1="0" x2="1" y2="1"><stop offset="0" stop-color="#79bd45"/><stop offset="1" stop-color="#4f9835"/></linearGradient></defs><rect width="500" height="500" fill="white"/><path d="M250 35c92 0 160 42 180 116l38 145c-16 91-87 153-218 180C119 449 48 387 32 296l38-145C90 77 158 35 250 35z" fill="url(#g)" stroke="#07552e" stroke-width="14"/><path d="M105 150h290l-18 55H123z" fill="#07552e"/><text x="250" y="129" text-anchor="middle" font-family="Arial,sans-serif" font-size="48" font-weight="900" fill="#07552e">TST</text><text x="250" y="300" text-anchor="middle" font-family="Arial,sans-serif" font-size="150" font-weight="900" fill="#79bd45" stroke="#07552e" stroke-width="14" paint-order="stroke">EA</text><path d="M166 362l42 36 91-91 28 29-119 119-70-61z" fill="#07552e"/><text x="250" y="485" text-anchor="middle" font-family="Arial,sans-serif" font-size="24" font-weight="700" fill="#07552e">@EDUARDOANDRADETST</text></svg>